<!-- <svg width="57" height="56" viewBox="0 0 57 56" fill="none" xmlns="http://www.w3.org/2000/svg">
<path fill-rule="evenodd" clip-rule="evenodd" d="M56.5 28C56.5 43.464 43.964 56 28.5 56C13.036 56 0.5 43.464 0.5 28C0.5 12.536 13.036 0 28.5 0C43.964 0 56.5 12.536 56.5 28ZM54.4 28C54.4 42.3042 42.8042 53.9 28.5 53.9C14.1958 53.9 2.6 42.3042 2.6 28C2.6 13.6958 14.1958 2.1 28.5 2.1C42.8042 2.1 54.4 13.6958 54.4 28Z" fill="#0D71C9"/>
<path d="M35.4924 23.5182C32.3402 23.5182 30.0901 25.6402 30.0901 25.6402L30.082 22.3363V20.2545C31.2111 21.2941 32.9047 22.3228 35.198 22.3228C42.637 22.3228 42.8072 17.5738 42.6289 15.8654C42.6019 15.6049 42.3102 15.4652 42.0887 15.6049C41.3296 16.0857 39.4794 16.8969 35.6275 16.8969C32.4942 16.8969 30.0739 15.9567 28.9854 15.4437C28.6936 15.304 28.356 15.5162 28.356 15.8386V17.8263C26.9946 16.4913 24.8256 15.6425 21.8435 15.6425C15.6417 15.6425 13.1728 19.7603 13.1728 23.5773C13.1728 25.2856 14.5666 26.6717 16.2818 26.6717C17.9998 26.6717 19.3936 25.2856 19.3936 23.5773C19.3936 22.2154 18.5076 21.0577 17.2786 20.6467L17.2813 20.644C17.2813 20.644 18.0727 17.7914 21.2249 17.7914C23.9612 17.7914 25.59 23.0535 19.6772 27.6602C13.0891 32.796 13.0026 37.8916 13.1242 39.2991C13.1431 39.5167 13.3214 39.6805 13.5375 39.6805C13.9291 39.6805 14.3046 39.5489 14.6071 39.3072C14.9502 39.0359 15.5768 38.7162 16.6357 38.7162C20.8198 38.7162 22.5296 40.1023 25.2119 40.1023C27.3053 40.1023 28.5316 39.146 29.2069 38.3052C30.7762 39.8363 33.1127 40.25 35.5087 40.25C38.8527 40.25 43.55 38.2112 43.55 31.3777C43.5554 24.5443 38.6447 23.5182 35.4924 23.5182ZM33.9852 37.7492C32.116 37.7492 31.3354 36.6157 31.0112 35.6433C32.686 35.4714 33.9852 34.174 33.9852 32.6026C33.9852 30.9131 32.4834 29.5404 30.6304 29.5404C28.7774 29.5404 27.2755 30.9104 27.2755 32.6026C27.2755 33.4461 27.3458 34.1982 27.4781 34.8724C27.0946 35.1222 26.6138 35.2834 26.0195 35.2834C23.3427 35.2834 22.9753 33.8866 20.3606 33.8866C17.7486 33.8866 16.4547 34.9207 16.4547 34.9207C16.4547 33.3762 19.507 31.692 24.0179 29.8708C25.0525 29.4545 25.9168 28.9737 26.6381 28.4553C26.6381 28.4553 26.6786 28.4257 26.7515 28.3693C26.8379 28.3021 26.973 28.2001 27.1459 28.0658C27.1513 28.0604 27.154 28.0577 27.1621 28.0523C27.4889 27.7972 27.9508 27.4318 28.4884 26.994L29.7336 28.3317C29.8389 28.4123 29.9875 28.3935 30.0658 28.286C30.444 27.7542 31.6514 26.3467 33.7961 26.3467C36.4433 26.3467 37.286 30.0159 37.286 32.4361C37.286 34.8563 36.2461 37.7492 33.9852 37.7492Z" fill="#0D71C9"/>
</svg> -->

<svg width="160" height="160" viewBox="0 0 160 160" fill="none" xmlns="http://www.w3.org/2000/svg">
<g id="Type=Brandmark, Colour=Brand">
<g id="Vector">
<path fill-rule="evenodd" clip-rule="evenodd" d="M160 80C160 124.183 124.183 160 80 160C35.8172 160 0 124.183 0 80C0 35.8172 35.8172 0 80 0C124.183 0 160 35.8172 160 80ZM154 80C154 120.869 120.869 154 80 154C39.1309 154 6 120.869 6 80C6 39.1309 39.1309 6 80 6C120.869 6 154 39.1309 154 80Z" fill="#0D71C9"/>
<path d="M99.9784 67.1948C90.972 67.1948 84.5433 73.2577 84.5433 73.2577L84.5201 63.8179V57.8701C87.746 60.8402 92.585 63.7796 99.1372 63.7796C120.391 63.7796 120.878 50.2108 120.368 45.3298C120.291 44.5853 119.458 44.1862 118.825 44.5853C116.656 45.9591 111.37 48.2768 100.364 48.2768C91.4119 48.2768 84.4969 45.5907 81.3868 44.1249C80.5533 43.7258 79.5886 44.3321 79.5886 45.253V50.9322C75.6989 47.118 69.5017 44.6928 60.9815 44.6928C43.2619 44.6928 36.208 56.458 36.208 67.3636C36.208 72.2447 40.1903 76.2048 45.091 76.2048C49.9993 76.2048 53.9816 72.2447 53.9816 67.3636C53.9816 63.4726 51.4502 60.1648 47.9387 58.9906L47.9465 58.9829C47.9465 58.9829 50.2077 50.8325 59.2141 50.8325C67.0321 50.8325 71.6857 65.8671 54.792 79.029C35.9688 93.7029 35.7218 108.262 36.0691 112.283C36.1231 112.905 36.6325 113.373 37.2499 113.373C38.3689 113.373 39.4417 112.997 40.306 112.306C41.2862 111.531 43.0767 110.618 46.102 110.618C58.0565 110.618 62.9417 114.578 70.6053 114.578C76.5864 114.578 80.0902 111.846 82.0196 109.444C86.5035 113.818 93.1792 115 100.025 115C109.579 115 123 109.175 123 89.6507C123.015 70.1265 108.985 67.1948 99.9784 67.1948ZM95.672 107.855C90.3314 107.855 88.1011 104.616 87.175 101.838C91.9599 101.347 95.672 97.64 95.672 93.1503C95.672 88.323 91.381 84.4013 86.0868 84.4013C80.7925 84.4013 76.5015 88.3153 76.5015 93.1503C76.5015 95.5602 76.7022 97.7091 77.0803 99.6354C75.9845 100.349 74.6107 100.81 72.9128 100.81C65.2647 100.81 64.2151 96.8188 56.7445 96.8188C49.2816 96.8188 45.5849 99.7735 45.5849 99.7735C45.5849 95.3606 54.3057 90.5486 67.1941 85.3453C70.1499 84.1557 72.6196 82.7819 74.6802 81.3007C74.6802 81.3007 74.796 81.2163 75.0043 81.0551C75.2513 80.8633 75.6372 80.5716 76.1311 80.1879C76.1465 80.1726 76.1542 80.1649 76.1774 80.1495C77.1112 79.4204 78.4309 78.3767 79.9667 77.1257L83.5245 80.9477C83.8255 81.1779 84.25 81.1242 84.4738 80.8172C85.5543 79.2977 89.004 75.2761 95.1318 75.2761C102.695 75.2761 105.103 85.7597 105.103 92.6745C105.103 99.5893 102.132 107.855 95.672 107.855Z" fill="#0D71C9"/>
</g>
</g>
</svg>
